<mxfile host="app.diagrams.net" modified="2024-05-29T06:14:58.944Z" agent="Mozilla/5.0 (Windows NT 10.0; Win64; x64) AppleWebKit/537.36 (KHTML, like Gecko) Chrome/125.0.0.0 Safari/537.36" etag="U-9xSe64xUtINErnv00j" version="24.4.9" type="device">
  <diagram id="C5RBs43oDa-KdzZeNtuy" name="Page-1">
    <mxGraphModel dx="2089" dy="557" grid="1" gridSize="10" guides="1" tooltips="1" connect="1" arrows="1" fold="1" page="1" pageScale="1" pageWidth="827" pageHeight="1169" math="0" shadow="0">
      <root>
        <mxCell id="WIyWlLk6GJQsqaUBKTNV-0" />
        <mxCell id="WIyWlLk6GJQsqaUBKTNV-1" parent="WIyWlLk6GJQsqaUBKTNV-0" />
        <mxCell id="8CqH0JdE0eHLGCw0Tne6-2" style="edgeStyle=orthogonalEdgeStyle;rounded=0;orthogonalLoop=1;jettySize=auto;html=1;exitX=0.5;exitY=1;exitDx=0;exitDy=0;exitPerimeter=0;entryX=0.5;entryY=0;entryDx=0;entryDy=0;" edge="1" parent="WIyWlLk6GJQsqaUBKTNV-1" source="8CqH0JdE0eHLGCw0Tne6-0" target="8CqH0JdE0eHLGCw0Tne6-1">
          <mxGeometry relative="1" as="geometry" />
        </mxCell>
        <mxCell id="8CqH0JdE0eHLGCw0Tne6-0" value="Bắt đầu" style="strokeWidth=2;html=1;shape=mxgraph.flowchart.start_1;whiteSpace=wrap;fontStyle=1;fontSize=14;" vertex="1" parent="WIyWlLk6GJQsqaUBKTNV-1">
          <mxGeometry x="-463" y="40" width="100" height="60" as="geometry" />
        </mxCell>
        <mxCell id="8CqH0JdE0eHLGCw0Tne6-1" value="Q := 0,&amp;nbsp;&lt;span style=&quot;background-color: initial;&quot;&gt;R := a,&lt;/span&gt;&lt;div&gt;&lt;span style=&quot;background-color: initial;&quot;&gt;n := 32&lt;/span&gt;&lt;/div&gt;" style="rounded=0;whiteSpace=wrap;html=1;absoluteArcSize=1;arcSize=14;strokeWidth=2;fontStyle=1;fontSize=14;" vertex="1" parent="WIyWlLk6GJQsqaUBKTNV-1">
          <mxGeometry x="-483" y="140" width="140" height="50" as="geometry" />
        </mxCell>
        <mxCell id="8CqH0JdE0eHLGCw0Tne6-6" style="edgeStyle=orthogonalEdgeStyle;rounded=0;orthogonalLoop=1;jettySize=auto;html=1;exitX=1;exitY=0.5;exitDx=0;exitDy=0;exitPerimeter=0;" edge="1" parent="WIyWlLk6GJQsqaUBKTNV-1" source="8CqH0JdE0eHLGCw0Tne6-3" target="8CqH0JdE0eHLGCw0Tne6-5">
          <mxGeometry relative="1" as="geometry" />
        </mxCell>
        <mxCell id="8CqH0JdE0eHLGCw0Tne6-9" style="edgeStyle=orthogonalEdgeStyle;rounded=0;orthogonalLoop=1;jettySize=auto;html=1;exitX=0.5;exitY=1;exitDx=0;exitDy=0;exitPerimeter=0;entryX=0.5;entryY=0;entryDx=0;entryDy=0;" edge="1" parent="WIyWlLk6GJQsqaUBKTNV-1" source="8CqH0JdE0eHLGCw0Tne6-3" target="8CqH0JdE0eHLGCw0Tne6-8">
          <mxGeometry relative="1" as="geometry" />
        </mxCell>
        <mxCell id="8CqH0JdE0eHLGCw0Tne6-3" value="n = 0 ?" style="strokeWidth=2;html=1;shape=mxgraph.flowchart.decision;whiteSpace=wrap;fontStyle=1;fontSize=14;" vertex="1" parent="WIyWlLk6GJQsqaUBKTNV-1">
          <mxGeometry x="-463" y="240" width="100" height="60" as="geometry" />
        </mxCell>
        <mxCell id="8CqH0JdE0eHLGCw0Tne6-4" style="edgeStyle=orthogonalEdgeStyle;rounded=0;orthogonalLoop=1;jettySize=auto;html=1;exitX=0.5;exitY=1;exitDx=0;exitDy=0;entryX=0.5;entryY=0;entryDx=0;entryDy=0;entryPerimeter=0;" edge="1" parent="WIyWlLk6GJQsqaUBKTNV-1" source="8CqH0JdE0eHLGCw0Tne6-1" target="8CqH0JdE0eHLGCw0Tne6-3">
          <mxGeometry relative="1" as="geometry" />
        </mxCell>
        <mxCell id="8CqH0JdE0eHLGCw0Tne6-5" value="Kết thúc" style="strokeWidth=2;html=1;shape=mxgraph.flowchart.start_1;whiteSpace=wrap;fontStyle=1;fontSize=14;" vertex="1" parent="WIyWlLk6GJQsqaUBKTNV-1">
          <mxGeometry x="-263" y="240" width="100" height="60" as="geometry" />
        </mxCell>
        <mxCell id="8CqH0JdE0eHLGCw0Tne6-7" value="Y" style="text;html=1;align=center;verticalAlign=middle;whiteSpace=wrap;rounded=0;fontStyle=1;fontSize=14;" vertex="1" parent="WIyWlLk6GJQsqaUBKTNV-1">
          <mxGeometry x="-363" y="240" width="20" height="30" as="geometry" />
        </mxCell>
        <mxCell id="8CqH0JdE0eHLGCw0Tne6-8" value="R := R - b" style="rounded=0;whiteSpace=wrap;html=1;absoluteArcSize=1;arcSize=14;strokeWidth=2;fontStyle=1;fontSize=14;" vertex="1" parent="WIyWlLk6GJQsqaUBKTNV-1">
          <mxGeometry x="-483" y="340" width="140" height="50" as="geometry" />
        </mxCell>
        <mxCell id="8CqH0JdE0eHLGCw0Tne6-10" value="N" style="text;html=1;align=center;verticalAlign=middle;whiteSpace=wrap;rounded=0;fontStyle=1;fontSize=14;" vertex="1" parent="WIyWlLk6GJQsqaUBKTNV-1">
          <mxGeometry x="-433" y="300" width="20" height="30" as="geometry" />
        </mxCell>
        <mxCell id="8CqH0JdE0eHLGCw0Tne6-14" style="edgeStyle=orthogonalEdgeStyle;rounded=0;orthogonalLoop=1;jettySize=auto;html=1;exitX=1;exitY=0.5;exitDx=0;exitDy=0;exitPerimeter=0;entryX=0;entryY=0.5;entryDx=0;entryDy=0;" edge="1" parent="WIyWlLk6GJQsqaUBKTNV-1" source="8CqH0JdE0eHLGCw0Tne6-11" target="8CqH0JdE0eHLGCw0Tne6-13">
          <mxGeometry relative="1" as="geometry" />
        </mxCell>
        <mxCell id="8CqH0JdE0eHLGCw0Tne6-17" style="edgeStyle=orthogonalEdgeStyle;rounded=0;orthogonalLoop=1;jettySize=auto;html=1;exitX=0;exitY=0.5;exitDx=0;exitDy=0;exitPerimeter=0;entryX=1;entryY=0.5;entryDx=0;entryDy=0;" edge="1" parent="WIyWlLk6GJQsqaUBKTNV-1" source="8CqH0JdE0eHLGCw0Tne6-11" target="8CqH0JdE0eHLGCw0Tne6-16">
          <mxGeometry relative="1" as="geometry" />
        </mxCell>
        <mxCell id="8CqH0JdE0eHLGCw0Tne6-11" value="R &amp;lt; 0 ?" style="strokeWidth=2;html=1;shape=mxgraph.flowchart.decision;whiteSpace=wrap;fontStyle=1;fontSize=14;" vertex="1" parent="WIyWlLk6GJQsqaUBKTNV-1">
          <mxGeometry x="-463" y="440" width="100" height="60" as="geometry" />
        </mxCell>
        <mxCell id="8CqH0JdE0eHLGCw0Tne6-12" style="edgeStyle=orthogonalEdgeStyle;rounded=0;orthogonalLoop=1;jettySize=auto;html=1;exitX=0.5;exitY=1;exitDx=0;exitDy=0;entryX=0.5;entryY=0;entryDx=0;entryDy=0;entryPerimeter=0;" edge="1" parent="WIyWlLk6GJQsqaUBKTNV-1" source="8CqH0JdE0eHLGCw0Tne6-8" target="8CqH0JdE0eHLGCw0Tne6-11">
          <mxGeometry relative="1" as="geometry" />
        </mxCell>
        <mxCell id="8CqH0JdE0eHLGCw0Tne6-22" style="edgeStyle=orthogonalEdgeStyle;rounded=0;orthogonalLoop=1;jettySize=auto;html=1;exitX=0.5;exitY=1;exitDx=0;exitDy=0;entryX=0.5;entryY=0;entryDx=0;entryDy=0;" edge="1" parent="WIyWlLk6GJQsqaUBKTNV-1" source="8CqH0JdE0eHLGCw0Tne6-13" target="8CqH0JdE0eHLGCw0Tne6-21">
          <mxGeometry relative="1" as="geometry" />
        </mxCell>
        <mxCell id="8CqH0JdE0eHLGCw0Tne6-13" value="Dịch trái Q" style="rounded=0;whiteSpace=wrap;html=1;absoluteArcSize=1;arcSize=14;strokeWidth=2;fontStyle=1;fontSize=14;" vertex="1" parent="WIyWlLk6GJQsqaUBKTNV-1">
          <mxGeometry x="-283" y="445" width="140" height="50" as="geometry" />
        </mxCell>
        <mxCell id="8CqH0JdE0eHLGCw0Tne6-15" value="N" style="text;html=1;align=center;verticalAlign=middle;whiteSpace=wrap;rounded=0;fontStyle=1;fontSize=14;" vertex="1" parent="WIyWlLk6GJQsqaUBKTNV-1">
          <mxGeometry x="-363" y="440" width="20" height="30" as="geometry" />
        </mxCell>
        <mxCell id="8CqH0JdE0eHLGCw0Tne6-20" style="edgeStyle=orthogonalEdgeStyle;rounded=0;orthogonalLoop=1;jettySize=auto;html=1;exitX=0.5;exitY=1;exitDx=0;exitDy=0;entryX=0.5;entryY=0;entryDx=0;entryDy=0;" edge="1" parent="WIyWlLk6GJQsqaUBKTNV-1" source="8CqH0JdE0eHLGCw0Tne6-16" target="8CqH0JdE0eHLGCw0Tne6-19">
          <mxGeometry relative="1" as="geometry" />
        </mxCell>
        <mxCell id="8CqH0JdE0eHLGCw0Tne6-16" value="R := R + b" style="rounded=0;whiteSpace=wrap;html=1;absoluteArcSize=1;arcSize=14;strokeWidth=2;fontStyle=1;fontSize=14;" vertex="1" parent="WIyWlLk6GJQsqaUBKTNV-1">
          <mxGeometry x="-683" y="445" width="140" height="50" as="geometry" />
        </mxCell>
        <mxCell id="8CqH0JdE0eHLGCw0Tne6-18" value="Y" style="text;html=1;align=center;verticalAlign=middle;whiteSpace=wrap;rounded=0;fontStyle=1;fontSize=14;" vertex="1" parent="WIyWlLk6GJQsqaUBKTNV-1">
          <mxGeometry x="-483" y="440" width="20" height="30" as="geometry" />
        </mxCell>
        <mxCell id="8CqH0JdE0eHLGCw0Tne6-24" style="edgeStyle=orthogonalEdgeStyle;rounded=0;orthogonalLoop=1;jettySize=auto;html=1;exitX=0.5;exitY=1;exitDx=0;exitDy=0;entryX=0;entryY=0.5;entryDx=0;entryDy=0;" edge="1" parent="WIyWlLk6GJQsqaUBKTNV-1" source="8CqH0JdE0eHLGCw0Tne6-19" target="8CqH0JdE0eHLGCw0Tne6-23">
          <mxGeometry relative="1" as="geometry" />
        </mxCell>
        <mxCell id="8CqH0JdE0eHLGCw0Tne6-19" value="Dịch trái Q" style="rounded=0;whiteSpace=wrap;html=1;absoluteArcSize=1;arcSize=14;strokeWidth=2;fontStyle=1;fontSize=14;" vertex="1" parent="WIyWlLk6GJQsqaUBKTNV-1">
          <mxGeometry x="-683" y="530" width="140" height="50" as="geometry" />
        </mxCell>
        <mxCell id="8CqH0JdE0eHLGCw0Tne6-25" style="edgeStyle=orthogonalEdgeStyle;rounded=0;orthogonalLoop=1;jettySize=auto;html=1;exitX=0.5;exitY=1;exitDx=0;exitDy=0;entryX=1;entryY=0.5;entryDx=0;entryDy=0;" edge="1" parent="WIyWlLk6GJQsqaUBKTNV-1" source="8CqH0JdE0eHLGCw0Tne6-21" target="8CqH0JdE0eHLGCw0Tne6-23">
          <mxGeometry relative="1" as="geometry" />
        </mxCell>
        <mxCell id="8CqH0JdE0eHLGCw0Tne6-21" value="Đặt bit cuối của Q&lt;div&gt;bằng 1&lt;/div&gt;" style="rounded=0;whiteSpace=wrap;html=1;absoluteArcSize=1;arcSize=14;strokeWidth=2;fontStyle=1;fontSize=14;" vertex="1" parent="WIyWlLk6GJQsqaUBKTNV-1">
          <mxGeometry x="-283" y="530" width="140" height="50" as="geometry" />
        </mxCell>
        <mxCell id="8CqH0JdE0eHLGCw0Tne6-27" style="edgeStyle=orthogonalEdgeStyle;rounded=0;orthogonalLoop=1;jettySize=auto;html=1;exitX=0.5;exitY=1;exitDx=0;exitDy=0;entryX=0.5;entryY=0;entryDx=0;entryDy=0;" edge="1" parent="WIyWlLk6GJQsqaUBKTNV-1" source="8CqH0JdE0eHLGCw0Tne6-23" target="8CqH0JdE0eHLGCw0Tne6-26">
          <mxGeometry relative="1" as="geometry" />
        </mxCell>
        <mxCell id="8CqH0JdE0eHLGCw0Tne6-23" value="Dịch phải b" style="rounded=0;whiteSpace=wrap;html=1;absoluteArcSize=1;arcSize=14;strokeWidth=2;fontStyle=1;fontSize=14;" vertex="1" parent="WIyWlLk6GJQsqaUBKTNV-1">
          <mxGeometry x="-483" y="640" width="140" height="50" as="geometry" />
        </mxCell>
        <mxCell id="8CqH0JdE0eHLGCw0Tne6-28" style="edgeStyle=orthogonalEdgeStyle;rounded=0;orthogonalLoop=1;jettySize=auto;html=1;exitX=0;exitY=0.5;exitDx=0;exitDy=0;" edge="1" parent="WIyWlLk6GJQsqaUBKTNV-1" source="8CqH0JdE0eHLGCw0Tne6-26">
          <mxGeometry relative="1" as="geometry">
            <mxPoint x="-413" y="220" as="targetPoint" />
            <Array as="points">
              <mxPoint x="-720" y="745" />
              <mxPoint x="-720" y="220" />
            </Array>
          </mxGeometry>
        </mxCell>
        <mxCell id="8CqH0JdE0eHLGCw0Tne6-26" value="n := n - 1" style="rounded=0;whiteSpace=wrap;html=1;absoluteArcSize=1;arcSize=14;strokeWidth=2;fontStyle=1;fontSize=14;" vertex="1" parent="WIyWlLk6GJQsqaUBKTNV-1">
          <mxGeometry x="-483" y="720" width="140" height="50" as="geometry" />
        </mxCell>
      </root>
    </mxGraphModel>
  </diagram>
</mxfile>
